<?xml version="1.0" standalone="no"?>
<!DOCTYPE svg PUBLIC "-//W3C//DTD SVG 20010904//EN"
 "http://www.w3.org/TR/2001/REC-SVG-20010904/DTD/svg10.dtd">
<svg version="1.0" xmlns="http://www.w3.org/2000/svg"
 width="23.000000pt" height="33.000000pt" viewBox="0 0 23.000000 33.000000"
 preserveAspectRatio="xMidYMid meet">
<metadata>
Created by potrace 1.10, written by Peter Selinger 2001-2011
</metadata>
<g transform="translate(0.000000,33.000000) scale(0.100000,-0.100000)"
fill="#000000" stroke="none">
<path d="M67 293 c-4 -3 -7 -16 -7 -28 0 -12 -11 -32 -25 -45 -21 -20 -25 -33
-25 -81 0 -51 4 -63 31 -94 26 -30 37 -35 74 -35 46 0 51 4 84 63 31 55 27
100 -11 148 -17 21 -37 39 -44 39 -6 0 -14 9 -17 20 -5 20 -45 28 -60 13z m33
-13 c0 -5 -4 -10 -10 -10 -5 0 -10 5 -10 10 0 6 5 10 10 10 6 0 10 -4 10 -10z
m10 -30 c0 -5 -4 -10 -10 -10 -5 0 -10 5 -10 10 0 6 5 10 10 10 6 0 10 -4 10
-10z m90 -102 c0 -43 -38 -109 -70 -120 -23 -9 -23 -7 8 23 39 38 40 61 6 106
-26 35 -68 45 -92 21 -16 -16 -29 -1 -16 20 7 10 24 17 40 17 17 0 35 8 43 19
13 18 15 17 47 -17 25 -26 34 -45 34 -69z m-73 0 c38 -36 25 -88 -22 -88 -30
0 -45 19 -45 55 0 31 15 55 34 55 5 0 20 -10 33 -22z"/>
</g>
</svg>
