<?xml version="1.0" standalone="no"?>
<!DOCTYPE svg PUBLIC "-//W3C//DTD SVG 20010904//EN"
 "http://www.w3.org/TR/2001/REC-SVG-20010904/DTD/svg10.dtd">
<svg version="1.0" xmlns="http://www.w3.org/2000/svg"
 width="14.000000pt" height="14.000000pt" viewBox="0 0 14.000000 14.000000"
 preserveAspectRatio="xMidYMid meet">
<metadata>
Created by potrace 1.10, written by Peter Selinger 2001-2011
</metadata>
<g transform="translate(0.000000,14.000000) scale(0.100000,-0.100000)"
fill="#000000" stroke="none">
<path d="M25 130 c-4 -6 -1 -9 6 -8 6 2 14 -3 17 -11 3 -10 -2 -13 -22 -9 -38
8 -34 -26 8 -68 38 -38 65 -43 89 -16 25 28 21 44 -21 85 -38 37 -65 46 -77
27z m98 -81 c7 -1 1 -4 -13 -8 -14 -4 -24 -13 -23 -19 2 -7 -2 -12 -8 -12 -6
0 -9 6 -6 13 2 6 -7 23 -21 35 -20 19 -22 26 -12 32 9 6 24 0 43 -16 16 -13
34 -24 40 -25z m-80 6 c4 3 5 2 2 -2 -3 -3 0 -13 6 -22 6 -9 0 -3 -15 12 -14
15 -26 33 -26 40 1 7 6 2 13 -11 7 -12 16 -20 20 -17z m77 -29 c0 -3 -4 -8
-10 -11 -5 -3 -10 -1 -10 4 0 6 5 11 10 11 6 0 10 -2 10 -4z"/>
</g>
</svg>
