<?xml version="1.0" standalone="no"?>
<!DOCTYPE svg PUBLIC "-//W3C//DTD SVG 20010904//EN"
 "http://www.w3.org/TR/2001/REC-SVG-20010904/DTD/svg10.dtd">
<svg version="1.0" xmlns="http://www.w3.org/2000/svg"
 width="12.000000pt" height="17.000000pt" viewBox="0 0 12.000000 17.000000"
 preserveAspectRatio="xMidYMid meet">
<metadata>
Created by potrace 1.10, written by Peter Selinger 2001-2011
</metadata>
<g transform="translate(0.000000,17.000000) scale(0.100000,-0.100000)"
fill="#000000" stroke="none">
<path d="M60 116 c-25 -26 -45 -53 -45 -60 0 -6 -4 -17 -9 -24 -11 -18 0 -27
17 -14 10 9 16 9 25 0 8 -8 14 -5 20 13 6 13 19 33 31 43 21 19 28 61 13 81
-4 6 -26 -10 -52 -39z m22 -40 c-16 -17 -27 -38 -24 -46 3 -11 -1 -10 -17 4
-25 22 -29 45 -4 25 12 -10 15 -11 9 -1 -5 8 5 26 26 50 28 31 34 34 36 18 2
-10 -9 -32 -26 -50z"/>
</g>
</svg>
