<?xml version="1.0" standalone="no"?>
<!DOCTYPE svg PUBLIC "-//W3C//DTD SVG 20010904//EN"
 "http://www.w3.org/TR/2001/REC-SVG-20010904/DTD/svg10.dtd">
<svg version="1.0" xmlns="http://www.w3.org/2000/svg"
 width="16.000000pt" height="12.000000pt" viewBox="0 0 16.000000 12.000000"
 preserveAspectRatio="xMidYMid meet">
<metadata>
Created by potrace 1.10, written by Peter Selinger 2001-2011
</metadata>
<g transform="translate(0.000000,12.000000) scale(0.100000,-0.100000)"
fill="#000000" stroke="none">
<path d="M11 102 c-17 -31 -13 -40 5 -14 9 13 14 26 11 29 -3 2 -10 -4 -16
-15z"/>
<path d="M47 100 c-29 -23 -29 -53 2 -83 16 -17 24 -18 52 -8 48 16 64 44 43
76 -9 14 -22 25 -29 25 -7 0 -20 2 -27 5 -8 3 -26 -4 -41 -15z m81 -17 c15
-15 15 -31 0 -47 -14 -13 -58 -16 -58 -4 0 4 -5 7 -12 5 -16 -3 -22 31 -9 47
13 16 61 15 79 -1z"/>
<path d="M51 54 c0 -11 3 -14 6 -6 3 7 2 16 -1 19 -3 4 -6 -2 -5 -13z"/>
<path d="M100 60 c0 -5 5 -10 10 -10 6 0 10 5 10 10 0 6 -4 10 -10 10 -5 0
-10 -4 -10 -10z"/>
<path d="M0 43 c0 -13 27 -49 33 -43 3 3 -3 16 -14 29 -10 13 -19 19 -19 14z"/>
</g>
</svg>
